<svg width="127" height="125" viewBox="0 0 127 125" fill="none" xmlns="http://www.w3.org/2000/svg">
<path d="M87.8534 15.5966L81.4481 7.05626C81.4481 5.93163 81.7356 4.82566 82.2833 3.84339C82.8309 2.86111 83.6206 2.03513 84.5772 1.44389C85.5339 0.852642 86.6258 0.515757 87.7493 0.465222C88.8728 0.414688 89.9906 0.652181 90.9965 1.15515L98.5288 4.92117L106.061 1.15515C107.067 0.652181 108.185 0.414688 109.308 0.465222C110.432 0.515757 111.524 0.852642 112.48 1.44389C113.437 2.03513 114.227 2.86111 114.774 3.84339C115.322 4.82566 115.609 5.93163 115.609 7.05626L109.204 15.5966V24.1369L123.816 47.8817C125.43 50.5044 126.285 53.5234 126.285 56.6027C126.285 61.0161 124.532 65.2487 121.411 68.3694C118.29 71.4901 114.057 73.2433 109.644 73.2433H87.4125C82.9993 73.243 78.7669 71.4897 75.6464 68.3691C72.5259 65.2484 70.7728 61.0159 70.7727 56.6027C70.7728 53.5233 71.6273 50.5042 73.2411 47.8815L87.8534 24.1369V15.5966Z" fill="#EAAE48"/>
<path d="M100.664 39.362V36.9478H96.3937V39.362C95.2349 39.7255 94.2111 40.4269 93.4537 41.3763C92.6963 42.3257 92.2399 43.4798 92.143 44.6904C92.0462 45.901 92.3132 47.113 92.91 48.1707C93.5067 49.2285 94.4059 50.0838 95.4922 50.627L99.6556 52.7087C100.023 52.8925 100.318 53.1949 100.492 53.5669C100.666 53.939 100.709 54.3589 100.615 54.7586C100.52 55.1584 100.294 55.5146 99.9715 55.7695C99.6495 56.0245 99.2508 56.1632 98.84 56.1632H98.2171C97.7336 56.1627 97.2701 55.9704 96.9283 55.6285C96.5865 55.2866 96.3942 54.8231 96.3937 54.3396V54.0282H92.1236V54.3396C92.1252 55.6368 92.5399 56.8998 93.3077 57.9454C94.0756 58.9909 95.1565 59.7647 96.3937 60.1545V62.5685H100.664V60.1545C101.823 59.791 102.846 59.0895 103.604 58.1401C104.361 57.1907 104.818 56.0366 104.914 54.826C105.011 53.6154 104.744 52.4034 104.148 51.3456C103.551 50.2878 102.652 49.4325 101.565 48.8893L97.402 46.8076C97.0345 46.6239 96.7398 46.3215 96.5657 45.9494C96.3915 45.5772 96.3481 45.1572 96.4425 44.7574C96.5369 44.3575 96.7636 44.0012 97.0858 43.7463C97.4079 43.4914 97.8068 43.3527 98.2176 43.3527H98.8405C99.324 43.3534 99.7874 43.5457 100.129 43.8876C100.471 44.2295 100.663 44.6929 100.664 45.1764V45.4878H104.934V45.1764C104.932 43.8792 104.518 42.6164 103.75 41.5709C102.982 40.5254 101.901 39.7517 100.664 39.362Z" fill="#B0792C"/>
<path d="M109.204 47.6229H113.474V51.8931H109.204V47.6229Z" fill="#B0792C"/>
<path d="M87.8534 15.5966H109.204V24.137H87.8534V15.5966Z" fill="#B0792C"/>
<path d="M30.2061 113.61V47.4219H81.4481V109.339L30.2061 113.61Z" fill="#85BB40"/>
<path d="M70.7727 73.0429H66.5025V66.6376C66.5025 66.0714 66.2776 65.5283 65.8772 65.1279C65.4768 64.7275 64.9337 64.5026 64.3675 64.5026H57.9622V58.0973C57.9622 57.531 57.7373 56.988 57.3369 56.5876C56.9364 56.1872 56.3934 55.9622 55.8271 55.9622H47.2868C46.7205 55.9622 46.1775 56.1872 45.777 56.5876C45.3766 56.988 45.1517 57.531 45.1517 58.0973V73.0429H40.8815V77.3131H70.7727V73.0429ZM62.2324 68.7727V73.0429H57.9622V68.7727H62.2324ZM49.4219 60.2324H53.692V73.0429H49.4219V60.2324Z" fill="#D1DF87"/>
<path d="M38.7464 83.7183H43.0166V87.9885H38.7464V83.7183Z" fill="#D1DF87"/>
<path d="M47.2868 83.7183H72.9078V87.9885H47.2868V83.7183Z" fill="#D1DF87"/>
<path d="M41.3824 40.6993L45.6051 41.334C45.8108 39.9696 46.086 38.6166 46.4295 37.2803L42.2944 36.2154C41.9142 37.6935 41.6098 39.1901 41.3824 40.6993Z" fill="#ED5749"/>
<path d="M106.145 77.8468C100.83 82.5411 94.3765 85.7583 87.4285 87.1766L88.2783 91.3614C95.9595 89.7941 103.095 86.2383 108.971 81.0494L106.145 77.8468Z" fill="#ED5749"/>
<path d="M73.5827 4.6105L61.4296 0.559448L60.0797 4.61077L66.7008 6.81765C56.0947 11.8245 47.8492 20.7569 43.7052 31.729L47.7052 33.2236C49.6238 28.1433 52.5347 23.4959 56.2682 19.5525C60.0017 15.609 64.483 12.4485 69.4508 10.2551L66.8311 18.1144L70.8824 19.4643L74.9334 7.31112C75.0221 7.0451 75.0575 6.76424 75.0376 6.48455C75.0177 6.20486 74.9429 5.93184 74.8174 5.68106C74.692 5.43028 74.5184 5.20666 74.3066 5.02298C74.0947 4.83929 73.8488 4.69913 73.5827 4.6105Z" fill="#ED5749"/>
<path d="M13.1254 90.1235H20.6724C28.0847 90.1235 35.3952 91.8493 42.0249 95.1642C43.8198 96.0615 45.7989 96.5287 47.8056 96.5288H64.3675C65.7831 96.5288 67.1408 97.0911 68.1418 98.0922C69.1428 99.0932 69.7052 100.451 69.7052 101.866C69.7052 103.282 69.1428 104.64 68.1418 105.641C67.1408 106.642 65.7831 107.204 64.3675 107.204H64.2359C65.7317 107.204 67.2122 106.903 68.5891 106.318L86.4392 98.7389C87.1326 98.4481 87.8774 98.2996 88.6293 98.3021C89.3813 98.3046 90.125 98.4582 90.8165 98.7536C91.508 99.049 92.1331 99.4803 92.6547 100.022C93.1764 100.563 93.5839 101.204 93.8532 101.906C94.1344 102.613 94.2731 103.368 94.2613 104.129C94.2495 104.89 94.0874 105.64 93.7845 106.338C93.4815 107.036 93.0436 107.667 92.4959 108.195C91.9482 108.722 91.3016 109.137 90.5932 109.414L57.611 121.99C49.3483 125.144 40.1962 125.043 32.0052 121.707L13.1254 113.867L4.58508 113.609V90.1235H13.1254Z" fill="#F8CAA8"/>
<path d="M0.314911 87.9885H13.1254V117.88H0.314911V87.9885Z" fill="#0093B9"/>
<path d="M62.1008 105.069H40.8815C39.7023 105.069 38.7464 106.025 38.7464 107.204C38.7464 108.383 39.7023 109.339 40.8815 109.339H62.1008C63.28 109.339 64.2359 108.383 64.2359 107.204C64.2359 106.025 63.28 105.069 62.1008 105.069Z" fill="#E99180"/>
</svg>
