<svg width="160" height="160" viewBox="0 0 160 160" fill="none" xmlns="http://www.w3.org/2000/svg">
<path d="M160 80C160 96.175 155.197 111.231 146.944 123.819C142.372 130.791 136.738 137.003 130.275 142.228C129.241 143.069 128.181 143.881 127.103 144.669C123.838 147.053 120.384 149.194 116.769 151.066C113.25 152.891 109.581 154.462 105.781 155.753C97.6937 158.506 89.0219 160 80 160C70.9781 160 62.3063 158.506 54.2188 155.753C50.4156 154.462 46.7438 152.891 43.225 151.066C38.4188 148.572 33.8969 145.606 29.725 142.228C28.6406 141.356 27.5844 140.453 26.55 139.522C24.4656 137.65 22.4813 135.672 20.6063 133.594C17.8469 130.541 15.3219 127.272 13.0562 123.819C4.80312 111.231 0 96.175 0 80C0 63.825 4.80312 48.7687 13.0562 36.1813C15.3719 32.65 17.9594 29.3156 20.7938 26.2031C27.0563 19.3094 34.5125 13.5156 42.8312 9.14375C53.9375 3.30312 66.5813 0 80 0C93.4187 0 106.062 3.30312 117.169 9.14375C129.244 15.4875 139.497 24.8312 146.944 36.1813C155.197 48.7687 160 63.825 160 80Z" fill="#F93D6E"/>
<path d="M146.944 28.9187V123.819C132.65 145.609 108.006 160 80 160C51.9938 160 27.35 145.609 13.0563 123.819V28.9187C13.0563 17.9969 21.9094 9.14374 32.8313 9.14374H127.169C138.091 9.14374 146.944 17.9969 146.944 28.9187Z" fill="#ECC32E"/>
<path d="M40.3813 9.14374C30.3844 9.14374 22.1156 16.5656 20.7938 26.2031C20.6688 27.0906 20.6063 27.9969 20.6063 28.9187V133.594C17.8469 130.541 15.3219 127.272 13.0563 123.819V28.9187C13.0563 17.9969 21.9094 9.14374 32.8313 9.14374H40.3813Z" fill="#E7A52E"/>
<path d="M109.279 41.7963H50.7212C46.5291 41.7963 43.1306 38.3979 43.1306 34.2057V24.1766C43.1306 19.9844 46.5291 16.586 50.7212 16.586H109.279C113.471 16.586 116.87 19.9844 116.87 24.1766V34.2054C116.869 38.3979 113.471 41.7963 109.279 41.7963Z" fill="#E7A52E"/>
<path d="M127.103 45.8375V144.669C123.837 147.053 120.384 149.194 116.769 151.066C113.25 152.891 109.581 154.462 105.781 155.753H54.2187C50.4156 154.462 46.7438 152.891 43.225 151.066C38.4188 148.572 33.8969 145.606 29.725 142.228C28.6406 141.356 27.5844 140.453 26.55 139.522V45.8375C26.55 43.3906 27.8594 41.25 29.8125 40.0781C30.825 39.4656 32.0094 39.1156 33.275 39.1156H120.378C124.091 39.1156 127.103 42.125 127.103 45.8375Z" fill="#E7A52E"/>
<path d="M130.275 41.15V142.228C129.241 143.069 128.181 143.881 127.103 144.669C123.838 147.053 120.384 149.194 116.769 151.066H43.225C38.4188 148.572 33.8969 145.606 29.725 142.228V41.15C29.725 40.7843 29.7531 40.4281 29.8125 40.0781C30.3219 36.875 33.1 34.4281 36.4469 34.4281H123.553C127.266 34.4281 130.275 37.4375 130.275 41.15Z" fill="#F6F1F1"/>
<path d="M100.339 53.4587H59.6612C53.0131 53.4587 47.6041 48.0499 47.6041 41.4015V24.9406C47.6041 23.0421 49.1431 21.5031 51.0416 21.5031H108.958C110.857 21.5031 112.396 23.0421 112.396 24.9406V41.4012C112.396 48.0496 106.987 53.4587 100.339 53.4587ZM54.4791 28.3781V41.4012C54.4791 44.2587 56.8037 46.5834 59.6612 46.5834H100.339C103.196 46.5834 105.521 44.2587 105.521 41.4012V28.3781H54.4791Z" fill="#DFEAEF"/>
<path d="M45.9906 81.3615C45.0828 81.3615 44.2191 80.9669 43.625 80.2784L36.0634 71.5169C34.9359 70.2103 35.0806 68.2369 36.3875 67.1094C37.6941 65.9812 39.6678 66.1272 40.795 67.4334L45.9084 73.3584L57.2281 59.3106C58.3119 57.9662 60.2788 57.7553 61.6225 58.8381C62.9666 59.9209 63.1781 61.8881 62.0953 63.2322L48.4247 80.1978C47.8431 80.9197 46.9709 81.3459 46.0441 81.3615C46.0256 81.3615 46.0081 81.3615 45.9906 81.3615Z" fill="#80E29D"/>
<path d="M119.73 68.2388H73.2631C71.5375 68.2388 70.1381 66.8397 70.1381 65.1138C70.1381 63.3878 71.5375 61.9888 73.2631 61.9888H119.729C121.455 61.9888 122.854 63.3878 122.854 65.1138C122.854 66.8397 121.455 68.2388 119.73 68.2388Z" fill="#2F373B"/>
<path d="M102.619 80.0316H73.2634C71.5378 80.0316 70.1384 78.6325 70.1384 76.9066C70.1384 75.1806 71.5378 73.7816 73.2634 73.7816H102.619C104.345 73.7816 105.744 75.1806 105.744 76.9066C105.744 78.6325 104.345 80.0316 102.619 80.0316Z" fill="#2F373B"/>
<path d="M45.9906 137.502C45.0828 137.502 44.2191 137.107 43.625 136.419L36.0634 127.657C34.9359 126.351 35.0806 124.377 36.3875 123.25C37.6941 122.122 39.6678 122.267 40.795 123.574L45.9084 129.499L57.2281 115.451C58.3119 114.107 60.2788 113.896 61.6225 114.978C62.9666 116.061 63.1781 118.028 62.0953 119.372L48.4247 136.338C47.8431 137.06 46.9709 137.486 46.0441 137.502C46.0256 137.502 46.0081 137.502 45.9906 137.502Z" fill="#80E29D"/>
<path d="M119.73 124.379H73.2631C71.5375 124.379 70.1381 122.98 70.1381 121.254C70.1381 119.528 71.5375 118.129 73.2631 118.129H119.729C121.455 118.129 122.854 119.528 122.854 121.254C122.854 122.98 121.455 124.379 119.73 124.379Z" fill="#2F373B"/>
<path d="M102.619 136.172H73.2634C71.5378 136.172 70.1384 134.773 70.1384 133.047C70.1384 131.321 71.5378 129.922 73.2634 129.922H102.619C104.345 129.922 105.744 131.321 105.744 133.047C105.744 134.773 104.345 136.172 102.619 136.172Z" fill="#2F373B"/>
<path d="M119.73 96.491H73.2631C71.5375 96.491 70.1381 95.0919 70.1381 93.366C70.1381 91.64 71.5375 90.241 73.2631 90.241H119.729C121.455 90.241 122.854 91.64 122.854 93.366C122.854 95.0919 121.455 96.491 119.73 96.491Z" fill="#2F373B"/>
<path d="M102.619 108.284H73.2634C71.5378 108.284 70.1384 106.885 70.1384 105.159C70.1384 103.433 71.5378 102.034 73.2634 102.034H102.619C104.345 102.034 105.744 103.433 105.744 105.159C105.744 106.885 104.345 108.284 102.619 108.284Z" fill="#2F373B"/>
<path d="M50.2163 99.2625L55.3744 94.1044C56.5947 92.8841 56.5947 90.9053 55.3744 89.685C54.1538 88.4647 52.1756 88.4647 50.9547 89.685L45.7966 94.8431L40.6384 89.685C39.4184 88.4647 37.4403 88.4647 36.2188 89.685C34.9984 90.9053 34.9984 92.8841 36.2188 94.1044L41.3769 99.2625L36.2188 104.421C34.9984 105.641 34.9984 107.62 36.2188 108.84C36.8291 109.45 37.6288 109.755 38.4284 109.755C39.2281 109.755 40.0278 109.45 40.6381 108.84L45.7963 103.682L50.9544 108.84C51.5647 109.45 52.3644 109.755 53.1641 109.755C53.9638 109.755 54.7634 109.45 55.3738 108.84C56.5941 107.62 56.5941 105.641 55.3738 104.421L50.2163 99.2625Z" fill="#F93D6E"/>
</svg>
