<svg width="164" height="148" viewBox="0 0 164 148" fill="none" xmlns="http://www.w3.org/2000/svg">
<path d="M47.2189 85.9195L60.5839 72.5544L84.0867 96.0572L70.7217 109.422L47.2189 85.9195Z" fill="#7C91DB"/>
<path d="M117.578 138.601L113.279 142.9C107.416 148.762 97.8327 148.497 92.3032 142.32L69.2676 116.587C66.6272 113.637 66.7515 109.138 69.5507 106.339L81.0166 94.8726C83.8162 92.0734 88.315 91.9488 91.2647 94.5894L116.998 117.625C123.175 123.155 123.44 132.738 117.578 138.601Z" fill="#EFB060"/>
<path d="M115.198 116.013L91.2647 94.5893C88.315 91.949 83.8162 92.0733 81.017 94.8725L69.5511 106.339C66.7518 109.138 66.6273 113.637 69.2679 116.586L92.3035 142.32C92.554 142.6 92.8154 142.863 93.0819 143.118L111.511 122.531C113.248 120.589 114.476 118.36 115.198 116.013Z" fill="#EF9860"/>
<path d="M55.5028 90.8408C47.6532 98.6903 34.9266 98.6903 27.077 90.8408L1.55993 65.3237C-0.580403 63.1834 -0.518262 59.675 1.74635 57.6141C3.86714 55.6839 7.17052 55.8703 9.1981 57.8982L24.9264 73.6265C27.0821 75.7822 30.577 75.7822 32.7324 73.6265C34.8881 71.4708 34.8881 67.9759 32.7324 65.8205L17.0147 50.1028C14.8702 47.9583 14.8702 44.4813 17.0147 42.3368C19.1592 40.1923 22.6362 40.1923 24.7807 42.3368L40.4984 58.0545C42.6541 60.2102 46.149 60.2102 48.3044 58.0545C50.4601 55.8988 50.4601 52.4039 48.3044 50.2485L32.5761 34.5202C30.5482 32.4923 30.3618 29.1893 32.292 27.0685C34.3529 24.8042 37.8613 24.742 40.0016 26.882L65.5186 52.3991C73.3682 60.2487 73.3682 72.9753 65.5186 80.8249L55.5028 90.8408Z" fill="#8CADE0"/>
<path d="M112.986 70.931L126.638 84.5837L102.63 108.593L88.9769 94.94L112.986 70.931Z" fill="#7C91DB"/>
<path d="M152.209 84.0501C139.238 97.0215 123.757 95.1906 113.079 84.513C102.402 73.8354 100.571 58.3547 113.542 45.3833C126.514 32.4119 146.834 29.4032 157.512 40.0808C168.189 50.7585 165.18 71.0788 152.209 84.0501Z" fill="#8CADE0"/>
<path d="M150.045 47.5473C156.277 53.7796 153.609 67.7174 144.743 76.5839C136.446 84.88 127.667 84.1667 120.546 77.0465C113.426 69.9262 112.713 61.1462 121.009 52.8501C129.875 43.9832 143.813 41.3153 150.045 47.5473Z" fill="#7C91DB"/>
<path d="M59.1752 142.809L54.7837 138.417C48.7948 132.428 49.0655 122.638 55.3759 116.99L81.6634 93.4583C84.6765 90.761 89.2724 90.8881 92.1318 93.7476L103.845 105.46C106.704 108.32 106.831 112.916 104.134 115.929L80.6025 142.216C74.9538 148.526 65.1641 148.797 59.1752 142.809Z" fill="#EFB060"/>
<path d="M62.4376 15.4437C62.7361 29.113 74.4832 37.8723 82.6945 41.7999C85.2477 43.0213 88.216 43.0213 90.7695 41.7999C98.9804 37.8723 110.728 29.1127 111.026 15.4437C111.199 7.54028 104.946 0.897323 97.0409 0.869776C93.5191 0.857604 90.2977 2.1427 87.8268 4.27374C87.1987 4.81539 86.2659 4.81539 85.6378 4.27374C83.1669 2.1427 79.9455 0.857604 76.4237 0.869776C68.5181 0.897323 62.2649 7.54028 62.4376 15.4437Z" fill="#E48895"/>
<path d="M98.0746 37.4318C73.7206 34.2117 71.916 7.14653 76.424 0.870972C68.5187 0.898198 62.2659 7.54116 62.4385 15.4446C62.7371 29.1139 74.4842 37.8731 82.6954 41.8011C85.2486 43.0225 88.217 43.0225 90.7705 41.8011C93.0402 40.715 95.5803 39.2579 98.0746 37.4318Z" fill="#E06E7E"/>
</svg>
