<svg id="Layer_1" data-name="Layer 1" xmlns="http://www.w3.org/2000/svg" viewBox="0 0 455 455">
  <defs>
    <style>
      .cls-1 {
        fill: #fd9e10;
      }

      .cls-2 {
        fill: #373737;
        fill-rule: evenodd;
      }
    </style>
  </defs>
  <rect class="cls-1" x="37" y="15" width="395" height="428"/>
  <path class="cls-2" d="M0,0V455H455V0ZM375.92,337.36c-12.35,36.71-42.54,51.92-78.29,37.36-51.49-21-95.87-49.19-132.2-85.52S100.88,208.49,79.91,157c-14.57-35.75.64-65.95,37.35-78.29a28.5,28.5,0,0,1,19.53,0c15.65,5.76,55.3,60.33,56.19,76.66.68,12.52-7.83,19.31-16.27,25-16,10.84-16.05,24.57-9.23,39.9s15.66,28.91,26.79,40,24.62,19.93,40,26.79,29.06,6.73,39.9-9.22c5.73-8.45,12.51-17,25-16.28,16.33.89,70.91,40.54,76.67,56.2A28.53,28.53,0,0,1,375.92,337.36ZM324.33,196.11c-1.37-15.86-8.75-31.22-20.78-43.24a74.46,74.46,0,0,0-46-21.81,66.63,66.63,0,0,0-14,.27,10.5,10.5,0,1,1-2.67-20.83,87.7,87.7,0,0,1,18.48-.36,95.5,95.5,0,0,1,59,27.88c15.52,15.51,25.05,35.5,26.86,56.28a81.46,81.46,0,0,1-.34,17.25,10.5,10.5,0,0,1-10.4,9.18,10.17,10.17,0,0,1-1.34-.09,10.5,10.5,0,0,1-9.09-11.74A60.67,60.67,0,0,0,324.33,196.11Zm-34.87,3c-1.42-16.48-17.42-31.68-34.92-33.2a33.58,33.58,0,0,0-4.12-.1,10.5,10.5,0,0,1-.86-21,53.31,53.31,0,0,1,6.79.16c28,2.42,51.7,25.4,54,52.31a48.55,48.55,0,0,1,.07,7.33A10.51,10.51,0,0,1,300,214.44l-.73,0a10.49,10.49,0,0,1-9.76-11.19A26.7,26.7,0,0,0,289.46,199.13Zm89.4,22a10.5,10.5,0,0,1-10.33,8.7,11.24,11.24,0,0,1-1.81-.15,10.51,10.51,0,0,1-8.55-12.15,95,95,0,0,0,1-24.48c-2.08-24.05-13.06-47.13-30.9-65a109.51,109.51,0,0,0-67.72-31.93,100.61,100.61,0,0,0-24.42.85,10.5,10.5,0,0,1-3.29-20.75,121.9,121.9,0,0,1,29.53-1,130.56,130.56,0,0,1,80.75,38c21.33,21.33,34.46,49,37,78A115.84,115.84,0,0,1,378.86,221.17Z"/>
</svg>
